<svg data-v-0dd9719b="" version="1.0" xmlns="http://www.w3.org/2000/svg" xmlns:xlink="http://www.w3.org/1999/xlink" width="100%" height="100%" viewBox="0 0 340.000000 250.000000" preserveAspectRatio="xMidYMid meet" color-interpolation-filters="sRGB" style="margin: auto;"> <rect data-v-0dd9719b="" x="0" y="0" width="100%" height="100%" fill="#fff" fill-opacity="1" class="background"></rect> <rect data-v-0dd9719b="" x="0" y="0" width="100%" height="100%" fill="url(#watermark)" fill-opacity="1" class="watermarklayer"></rect> <g data-v-0dd9719b="" fill="#333" class="icon-text-wrapper icon-svg-group iconsvg" transform="translate(46.850189208984375,88.27804565429688)"><g class="iconsvg-imagesvg" transform="translate(0,0)"><g><rect fill="#333" fill-opacity="0" stroke-width="2" x="0" y="0" width="60" height="73.44390721586389" class="image-rect"></rect> <svg x="0" y="0" width="60" height="73.44390721586389" filtersec="colorsb187253807" class="image-svg-svg primary" style="overflow: visible;"><svg xmlns="http://www.w3.org/2000/svg" viewBox="0.0007322460296563804 -0.00128936767578125 81.70841979980469 100.01615905761719"><path d="M65.68 67.05a6.52 6.52 0 1 1-6.52 6.51 6.51 6.51 0 0 1 6.52-6.51z" fill="#fc0"></path><path d="M53 .47l-.5.14a15.39 15.39 0 0 0-8 6 53.55 53.55 0 0 1 15.09 10.94C65.14 23.21 69.48 31 72.42 39a39.39 39.39 0 0 0-43.51-16.42l-.75.22a39.43 39.43 0 1 0 35.27 69.07c.52-.4-5.26-14.52-16.7-10.29-3 1.06-8.85 3.57-20.21-3C18 73.7 15.3 62.74 18.44 53.46a22.16 22.16 0 0 1 42.39 1.39A8.64 8.64 0 0 0 71.41 61c11.12-3 11.82-28.17 8.68-38.49C75.5 7.41 63.45-2.3 53 .47z" fill="#0077f0"></path><path d="M51.51 57a13.16 13.16 0 0 1-9.31 16.11 13.18 13.18 0 0 1-16.13-9.31 13.17 13.17 0 0 1 9.31-16.13A13.17 13.17 0 0 1 51.51 57z" fill="#3eae31"></path></svg></svg> <!----></g></g> <g transform="translate(67,26.633541107177734)"><g data-gra="path-name" fill-rule="" class="tp-name iconsvg-namesvg"><g transform="scale(1)"><g><path d="M9.03-20.12L9.03-20.12Q11.99-20.35 14.2-19.23L14.2-19.23Q16.07-18.31 17.34-16.36L17.34-16.36Q18-15.24 18.31-14.06L18.31-14.06Q18.54-13.31 18.43-12.91L18.43-12.91Q18.2-12.36 17.62-12.48L17.62-12.48Q17.34-12.65 17.25-12.97L17.25-12.97Q16.93-14.2 16.47-15.27L16.47-15.27Q15.9-16.65 14.6-17.54L14.6-17.54Q11.84-19.52 8.65-18.89L8.65-18.89Q6.04-18.54 4.11-16.24L4.11-16.24Q2.5-14.23 2.24-11.64L2.24-11.64Q2.01-9.75 2.04-8.74L2.04-8.74Q2.07-7.13 3.16-5.29L3.16-5.29Q4.69-2.3 7.3-1.7L7.3-1.7Q8.37-1.35 9.52-1.26L9.52-1.26Q11.36-1.18 12.85-1.64L12.85-1.64Q15.52-2.76 16.59-5.49L16.59-5.49 17.13-6.64Q17.42-7.33 18-7.16L18-7.16Q18.89-6.7 18.46-5.95L18.46-5.95Q17.71-4.2 16.27-2.5L16.27-2.5Q15.32-1.24 13.86-0.72L13.86-0.72Q11.27 0.23 8.25-0.2L8.25-0.2Q6.87-0.4 5.95-0.8L5.95-0.8Q3.42-1.93 1.78-4.83L1.78-4.83Q0.78-6.96 0.69-9.37L0.69-9.37Q0.49-12.62 2.41-16.04L2.41-16.04Q3.1-17.28 4.43-18.43L4.43-18.43Q6.58-19.87 9.03-20.12ZM20.73-20.12L20.73-20.12 32.23-20.12Q34.3-19.92 35.59-18.31L35.59-18.31Q36.34-17.19 36.34-16.01L36.34-16.01Q36.51-14.29 35.97-12.94L35.97-12.94Q35.19-11.21 33.41-10.69L33.41-10.69Q32.69-10.61 33.41-10.23L33.41-10.23Q34.13-9.75 34.36-9.26L34.36-9.26Q34.99-8.05 35.02-6.96L35.02-6.96Q35.16-4.46 35.85-2.36L35.85-2.36Q36.08-1.64 36.43-1.21L36.43-1.21Q37.06-0.32 35.97-0.11L35.97-0.11Q35.65-0.06 35.42-0.34L35.42-0.34Q33.87-2.76 33.69-6.04L33.69-6.04Q33.72-6.67 33.58-7.36L33.58-7.36Q33.32-8.88 31.8-9.89L31.8-9.89Q31.57-10.03 30.88-10.03L30.88-10.03 21.56-10.03Q20.84-10.03 20.84-9.34L20.84-9.34 20.84-1.32Q20.84-0.46 20.81-0.37L20.81-0.37Q20.7-0.14 20.35-0.09L20.35-0.09Q20.04-0.03 19.81-0.29L19.81-0.29Q19.69-0.49 19.69-1.35L19.69-1.35 19.69-19Q19.75-19.89 20.73-20.12ZM31.62-19L21.45-19Q21.04-18.95 20.9-18.63L20.9-18.63Q20.84-18.51 20.84-17.85L20.84-17.85 20.84-11.9Q20.84-11.18 21.53-11.18L21.53-11.18 31.34-11.18Q32.37-11.3 33.64-12.33L33.64-12.33Q34.27-12.79 34.56-13.43L34.56-13.43Q35.42-15.38 34.76-16.88L34.76-16.88Q34.01-18.43 32.83-18.72L32.83-18.72Q32.26-18.92 31.62-19L31.62-19ZM44.91-19.98L44.91-19.98Q47.29-20.53 50.25-19.46L50.25-19.46Q52.76-18.54 54.31-15.96L54.31-15.96Q56.64-11.18 55.17-6.35L55.17-6.35Q54.25-2.76 50.97-1.03L50.97-1.03Q49.51-0.34 47.52-0.11L47.52-0.11Q45.22 0.11 42.72-0.92L42.72-0.92Q40.19-1.93 38.78-4.71L38.78-4.71Q37.23-8.31 37.78-11.99L37.78-11.99Q37.98-14.32 39.36-16.59L39.36-16.59Q40.05-17.71 41.46-18.69L41.46-18.69Q43.04-19.69 44.91-19.98ZM50.71-17.97L50.71-17.97Q47.12-19.78 43.67-18.46L43.67-18.46Q41.2-17.62 39.79-14.86L39.79-14.86Q38.93-12.88 38.81-10.41L38.81-10.41Q38.81-6.96 40.36-4.37L40.36-4.37Q41.17-3.19 42.49-2.33L42.49-2.33Q45.94-0.49 49.45-1.72L49.45-1.72Q50.8-2.18 51.75-2.99L51.75-2.99Q53.3-4.34 53.93-6.41L53.93-6.41Q54.74-9.14 54.48-11.24L54.48-11.24Q54.28-13.83 52.99-15.84L52.99-15.84Q51.98-17.34 50.71-17.97ZM59.08-18.92L59.08-18.92Q61.32-20.04 63.68-20.18L63.68-20.18 65.66-20.18Q68.45-19.95 70.26-18.86L70.26-18.86Q72.19-17.48 72.48-15.64L72.48-15.64Q72.68-15.01 72.3-14.49L72.3-14.49Q71.93-14.17 71.44-14.6L71.44-14.6Q71.36-14.72 71.33-14.89L71.33-14.89Q71.07-16.24 70.23-17.19L70.23-17.19Q69.89-17.65 69.29-18L69.29-18Q67.7-18.97 65.69-19.06L65.69-19.06 64.08-19.06Q62.93-19.03 61.75-18.77L61.75-18.77Q60.32-18.51 59.45-17.85L59.45-17.85Q58.02-16.5 58.22-14.92L58.22-14.92Q58.42-12.97 60.69-12.1L60.69-12.1Q61.38-11.93 62.99-11.67L62.99-11.67Q65.29-11.27 67.59-10.84L67.59-10.84Q69.4-10.49 71.04-9.52L71.04-9.52Q72.94-8.31 73.08-6.3L73.08-6.3Q73.22-5.23 72.79-4L72.79-4Q72.42-2.79 71.36-1.81L71.36-1.81Q69.23-0.11 66.81-0.11L66.81-0.11 64.63-0.11Q63.36-0.14 62.21-0.34L62.21-0.34Q61.18-0.55 59.91-1.15L59.91-1.15Q57.21-2.76 56.49-5.35L56.49-5.35Q56.18-6.3 56.29-6.9L56.29-6.9Q56.55-7.36 56.95-7.36L56.95-7.36Q57.21-7.39 57.44-6.99L57.44-6.99 57.7-5.84Q58.1-3.94 60.06-2.56L60.06-2.56Q61.21-1.81 62.36-1.58L62.36-1.58Q64.71-1.09 67.82-1.52L67.82-1.52Q68.94-1.64 70.12-2.39L70.12-2.39Q70.84-2.93 71.21-3.56L71.21-3.56Q71.9-4.86 71.82-6.32L71.82-6.32Q71.64-7.62 70.35-8.48L70.35-8.48Q68.62-9.75 65.75-10.03L65.75-10.03Q62.3-10.61 60-11.15L60-11.15Q58.74-11.44 57.73-12.59L57.73-12.59Q56.61-14.37 57.36-16.79L57.36-16.79Q57.79-18.08 59.08-18.92ZM76.79-18.92L76.79-18.92Q79.03-20.04 81.39-20.18L81.39-20.18 83.37-20.18Q86.16-19.95 87.97-18.86L87.97-18.86Q89.9-17.48 90.19-15.64L90.19-15.64Q90.39-15.01 90.01-14.49L90.01-14.49Q89.64-14.17 89.15-14.6L89.15-14.6Q89.07-14.72 89.04-14.89L89.04-14.89Q88.78-16.24 87.94-17.19L87.94-17.19Q87.6-17.65 87-18L87-18Q85.41-18.97 83.4-19.06L83.4-19.06 81.79-19.06Q80.64-19.03 79.46-18.77L79.46-18.77Q78.03-18.51 77.16-17.85L77.16-17.85Q75.73-16.5 75.93-14.92L75.93-14.92Q76.13-12.97 78.4-12.1L78.4-12.1Q79.09-11.93 80.7-11.67L80.7-11.67Q83-11.27 85.3-10.84L85.3-10.84Q87.11-10.49 88.75-9.52L88.75-9.52Q90.65-8.31 90.79-6.3L90.79-6.3Q90.93-5.23 90.5-4L90.5-4Q90.13-2.79 89.07-1.81L89.07-1.81Q86.94-0.11 84.52-0.11L84.52-0.11 82.34-0.11Q81.07-0.14 79.92-0.34L79.92-0.34Q78.89-0.55 77.62-1.15L77.62-1.15Q74.92-2.76 74.2-5.35L74.2-5.35Q73.89-6.3 74-6.9L74-6.9Q74.26-7.36 74.66-7.36L74.66-7.36Q74.92-7.39 75.15-6.99L75.15-6.99 75.41-5.84Q75.81-3.94 77.77-2.56L77.77-2.56Q78.92-1.81 80.07-1.58L80.07-1.58Q82.42-1.09 85.53-1.52L85.53-1.52Q86.65-1.64 87.83-2.39L87.83-2.39Q88.55-2.93 88.92-3.56L88.92-3.56Q89.61-4.86 89.53-6.32L89.53-6.32Q89.35-7.62 88.06-8.48L88.06-8.48Q86.33-9.75 83.46-10.03L83.46-10.03Q80.01-10.61 77.71-11.15L77.71-11.15Q76.44-11.44 75.44-12.59L75.44-12.59Q74.32-14.37 75.06-16.79L75.06-16.79Q75.5-18.08 76.79-18.92ZM107.87-20.12L107.87-20.12 119.37-20.12Q121.44-19.92 122.73-18.31L122.73-18.31Q123.48-17.19 123.48-16.01L123.48-16.01Q123.65-14.29 123.1-12.94L123.1-12.94Q122.33-11.21 120.55-10.69L120.55-10.69Q119.83-10.61 120.55-10.23L120.55-10.23Q121.26-9.75 121.49-9.26L121.49-9.26Q122.13-8.05 122.16-6.96L122.16-6.96Q122.3-4.46 122.99-2.36L122.99-2.36Q123.22-1.64 123.56-1.21L123.56-1.21Q124.2-0.32 123.1-0.11L123.1-0.11Q122.79-0.06 122.56-0.34L122.56-0.34Q121.01-2.76 120.83-6.04L120.83-6.04Q120.86-6.67 120.72-7.36L120.72-7.36Q120.46-8.88 118.94-9.89L118.94-9.89Q118.71-10.03 118.02-10.03L118.02-10.03 108.7-10.03Q107.98-10.03 107.98-9.34L107.98-9.34 107.98-1.32Q107.98-0.46 107.95-0.37L107.95-0.37Q107.84-0.14 107.49-0.09L107.49-0.09Q107.18-0.03 106.95-0.29L106.95-0.29Q106.83-0.49 106.83-1.35L106.83-1.35 106.83-19Q106.89-19.89 107.87-20.12ZM118.76-19L108.59-19Q108.18-18.95 108.04-18.63L108.04-18.63Q107.98-18.51 107.98-17.85L107.98-17.85 107.98-11.9Q107.98-11.18 108.67-11.18L108.67-11.18 118.48-11.18Q119.51-11.3 120.78-12.33L120.78-12.33Q121.41-12.79 121.7-13.43L121.7-13.43Q122.56-15.38 121.9-16.88L121.9-16.88Q121.15-18.43 119.97-18.72L119.97-18.72Q119.4-18.92 118.76-19L118.76-19ZM124.92-1.41L124.92-19.64Q125.06-20.1 125.52-20.1L125.52-20.1Q125.86-20.04 126.01-19.75L126.01-19.75Q126.07-19.61 126.07-18.8L126.07-18.8 126.07-1.35Q126.07-0.49 126.01-0.32L126.01-0.32Q125.89-0.11 125.63-0.06L125.63-0.06Q125.23 0.03 124.97-0.4L124.97-0.4Q124.92-0.55 124.92-1.41L124.92-1.41ZM128.05-20.12L128.05-20.12Q128.8-20.5 129.11-19.41L129.11-19.41Q133.63-7.82 136.13-1.67L136.13-1.67Q136.44-1.32 136.67-1.9L136.67-1.9 138.49-6.5Q140.9-12.82 143.37-19.15L143.37-19.15Q143.57-19.78 143.78-20.01L143.78-20.01Q144.03-20.27 144.21-20.21L144.21-20.21Q145.27-20.07 144.84-18.97L144.84-18.97Q141.48-10.35 138.14-1.72L138.14-1.72Q137.48 0.37 135.81-0.17L135.81-0.17Q135.32-0.46 134.92-1.24L134.92-1.24 128.05-18.49Q127.62-19.35 127.7-19.81L127.7-19.81Q127.79-20.01 128.05-20.12ZM147.94-20.12L147.94-20.12 159.7-20.12Q160.57-20.12 160.65-20.1L160.65-20.1Q161.11-19.84 160.94-19.35L160.94-19.35Q160.91-19.26 160.77-19.12L160.77-19.12Q160.51-19 159.65-19L159.65-19 148.92-19Q148.23-19 147.94-18.89L147.94-18.89Q147.4-18.6 147.25-17.59L147.25-17.59 147.25-11.9Q147.25-11.18 147.94-11.18L147.94-11.18 159.13-11.18Q159.99-11.18 160.13-11.13L160.13-11.13Q160.94-10.67 160.13-10.09L160.13-10.09Q159.99-10.03 159.19-10.03L159.19-10.03 147.97-10.03Q147.25-10.03 147.25-9.34L147.25-9.34 147.25-2.16Q147.43-1.32 148.17-1.21L148.17-1.21 159.65-1.21Q160.51-1.21 160.57-1.18L160.57-1.18Q161-0.92 160.88-0.4L160.88-0.4Q160.74-0.14 160.57-0.11L160.57-0.11Q160.45-0.06 159.59-0.06L159.59-0.06 147.51-0.06Q146.33-0.14 146.1-1.41L146.1-1.41 146.1-18.26Q146.13-19.81 147.94-20.12ZM164.04-20.12L164.04-20.12 175.54-20.12Q177.61-19.92 178.91-18.31L178.91-18.31Q179.66-17.19 179.66-16.01L179.66-16.01Q179.83-14.29 179.28-12.94L179.28-12.94Q178.51-11.21 176.72-10.69L176.72-10.69Q176-10.61 176.72-10.23L176.72-10.23Q177.44-9.75 177.67-9.26L177.67-9.26Q178.3-8.05 178.33-6.96L178.33-6.96Q178.48-4.46 179.17-2.36L179.17-2.36Q179.4-1.64 179.74-1.21L179.74-1.21Q180.37-0.32 179.28-0.11L179.28-0.11Q178.97-0.06 178.74-0.34L178.74-0.34Q177.18-2.76 177.01-6.04L177.01-6.04Q177.04-6.67 176.9-7.36L176.9-7.36Q176.64-8.88 175.11-9.89L175.11-9.89Q174.88-10.03 174.19-10.03L174.19-10.03 164.88-10.03Q164.16-10.03 164.16-9.34L164.16-9.34 164.16-1.32Q164.16-0.46 164.13-0.37L164.13-0.37Q164.02-0.14 163.67-0.09L163.67-0.09Q163.35-0.03 163.12-0.29L163.12-0.29Q163.01-0.49 163.01-1.35L163.01-1.35 163.01-19Q163.07-19.89 164.04-20.12ZM174.94-19L164.76-19Q164.36-18.95 164.22-18.63L164.22-18.63Q164.16-18.51 164.16-17.85L164.16-17.85 164.16-11.9Q164.16-11.18 164.85-11.18L164.85-11.18 174.65-11.18Q175.69-11.3 176.95-12.33L176.95-12.33Q177.59-12.79 177.87-13.43L177.87-13.43Q178.74-15.38 178.07-16.88L178.07-16.88Q177.33-18.43 176.15-18.72L176.15-18.72Q175.57-18.92 174.94-19L174.94-19Z" transform="translate(-0.6711321473121643, 20.221248626708984)"></path></g> <!----> <!----> <!----> <!----> <!----> <!----> <!----></g></g> <!----></g></g><defs v-gra="od"></defs></svg>